<svg width="71" height="48" viewBox="0 0 71 48" fill="none" xmlns="http://www.w3.org/2000/svg">
<path fill-rule="evenodd" clip-rule="evenodd" d="M22.0183 44.0367C29.2438 44.0367 35.6564 40.5564 39.6711 35.1806C42.8978 38.8126 47.6037 41.1009 52.844 41.1009C62.5724 41.1009 70.4587 33.2146 70.4587 23.4862C70.4587 13.7579 62.5724 5.87156 52.844 5.87156C48.2072 5.87156 43.9889 7.66315 40.8434 10.5919C36.9806 4.24138 29.9948 0 22.0183 0C9.85795 0 0 9.85795 0 22.0183C0 34.1787 9.85795 44.0367 22.0183 44.0367ZM45.5046 48C47.5313 48 49.1743 46.357 49.1743 44.3303C49.1743 42.3035 47.5313 40.6605 45.5046 40.6605C43.4779 40.6605 41.8349 42.3035 41.8349 44.3303C41.8349 46.357 43.4779 48 45.5046 48Z" fill="url(#paint0_linear)"/>
<defs>
<linearGradient id="paint0_linear" x1="-2.07359e-05" y1="4.55049" x2="70.4587" y2="50.789" gradientUnits="userSpaceOnUse">
<stop stop-color="#D4FC79"/>
<stop offset="1" stop-color="#96E6A1"/>
</linearGradient>
</defs>
</svg>
