<svg width="165" height="32" viewBox="0 0 165 32" fill="none" xmlns="http://www.w3.org/2000/svg">
<path fill-rule="evenodd" clip-rule="evenodd" d="M2.08 31.24C1.49333 31.24 1 31.04 0.6 30.64C0.2 30.24 0 29.7467 0 29.16V2.08C0 1.46667 0.2 0.973333 0.6 0.599999C1 0.2 1.49333 0 2.08 0C2.88 0 3.49333 0.373333 3.92 1.12L15.8 24.92L27.36 1.12C27.7867 0.373333 28.4 0 29.2 0C29.7867 0 30.28 0.2 30.68 0.599999C31.08 0.973333 31.28 1.46667 31.28 2.08V29.16C31.28 29.7467 31.0667 30.24 30.64 30.64C30.24 31.04 29.76 31.24 29.2 31.24C28.6133 31.24 28.12 31.04 27.72 30.64C27.32 30.24 27.12 29.7467 27.12 29.16V9.28L17.44 29C16.9867 29.6933 16.3867 30.04 15.64 30.04C14.76 30.04 14.12 29.6267 13.72 28.8L4.16 9.64V29.16C4.16 29.7467 3.96 30.24 3.56 30.64C3.16 31.04 2.66667 31.24 2.08 31.24ZM49.1769 31.4C46.9635 31.4 44.9902 30.9333 43.2569 30C41.5502 29.04 40.2035 27.7333 39.2169 26.08C38.2569 24.4 37.7769 22.48 37.7769 20.32C37.7769 18.1333 38.2302 16.2133 39.1369 14.56C40.0702 12.88 41.3502 11.5733 42.9769 10.64C44.6035 9.68 46.4702 9.2 48.5769 9.2C50.6569 9.2 52.4435 9.66667 53.9369 10.6C55.4302 11.5067 56.5635 12.7733 57.3369 14.4C58.1369 16 58.5369 17.8533 58.5369 19.96C58.5369 20.4667 58.3635 20.8933 58.0169 21.24C57.6702 21.56 57.2302 21.72 56.6969 21.72H41.4969C41.7902 23.56 42.6302 25.0667 44.0169 26.24C45.4302 27.3867 47.1502 27.96 49.1769 27.96C50.0035 27.96 50.8435 27.8133 51.6969 27.52C52.5769 27.2 53.2835 26.84 53.8169 26.44C54.2169 26.1467 54.6435 26 55.0969 26C55.5769 25.9733 55.9902 26.1067 56.3369 26.4C56.7902 26.8 57.0302 27.24 57.0569 27.72C57.0835 28.2 56.8702 28.6133 56.4169 28.96C55.5102 29.68 54.3769 30.2667 53.0169 30.72C51.6835 31.1733 50.4035 31.4 49.1769 31.4ZM48.5769 12.64C46.6035 12.64 45.0169 13.1867 43.8169 14.28C42.6169 15.3733 41.8569 16.7867 41.5369 18.52H54.8569C54.6169 16.8133 53.9635 15.4133 52.8969 14.32C51.8302 13.2 50.3902 12.64 48.5769 12.64ZM72.12 31.4C74.3333 31.4 76.3067 30.9333 78.04 30C79.7467 29.04 81.0933 27.7333 82.08 26.08C83.04 24.4 83.52 22.48 83.52 20.32C83.52 18.1333 83.0667 16.2133 82.16 14.56C81.2267 12.88 79.9467 11.5733 78.32 10.64C76.6933 9.68 74.8267 9.2 72.72 9.2C70.64 9.2 68.8533 9.66667 67.36 10.6C65.8667 11.5067 64.7333 12.7733 63.96 14.4C63.16 16 62.76 17.8533 62.76 19.96C62.76 20.4667 62.9333 20.8933 63.28 21.24C63.6267 21.56 64.0667 21.72 64.6 21.72H79.8C79.5067 23.56 78.6667 25.0667 77.28 26.24C75.8667 27.3867 74.1467 27.96 72.12 27.96C71.2933 27.96 70.4533 27.8133 69.6 27.52C68.72 27.2 68.0133 26.84 67.48 26.44C67.08 26.1467 66.6533 26 66.2 26C65.72 25.9733 65.3067 26.1067 64.96 26.4C64.5067 26.8 64.2667 27.24 64.24 27.72C64.2133 28.2 64.4267 28.6133 64.88 28.96C65.7867 29.68 66.92 30.2667 68.28 30.72C69.6133 31.1733 70.8933 31.4 72.12 31.4ZM72.72 12.64C74.6933 12.64 76.28 13.1867 77.48 14.28C78.68 15.3733 79.44 16.7867 79.76 18.52H66.44C66.68 16.8133 67.3333 15.4133 68.4 14.32C69.4667 13.2 70.9067 12.64 72.72 12.64ZM93.96 30.24C95.0267 30.9067 96.2267 31.24 97.56 31.24H98.28C98.9733 31.24 99.5333 31.0533 99.96 30.68C100.413 30.3067 100.64 29.8267 100.64 29.24C100.64 28.6533 100.467 28.1733 100.12 27.8C99.8 27.4267 99.4 27.24 98.92 27.24H97.56C96.7067 27.24 95.9867 26.88 95.4 26.16C94.8133 25.44 94.52 24.5467 94.52 23.48V13.6H97.92C98.48 13.6 98.9333 13.44 99.28 13.12C99.6267 12.8 99.8 12.4 99.8 11.92C99.8 11.3867 99.6267 10.96 99.28 10.64C98.9333 10.32 98.48 10.16 97.92 10.16H94.52V4.4C94.52 3.81333 94.3333 3.33333 93.96 2.96C93.5867 2.58667 93.1067 2.4 92.52 2.4C91.9333 2.4 91.4533 2.58667 91.08 2.96C90.7067 3.33333 90.52 3.81333 90.52 4.4V10.16H88.68C88.12 10.16 87.6667 10.32 87.32 10.64C86.9733 10.96 86.8 11.3867 86.8 11.92C86.8 12.4 86.9733 12.8 87.32 13.12C87.6667 13.44 88.12 13.6 88.68 13.6H90.52V23.48C90.52 24.9467 90.8267 26.2667 91.44 27.44C92.0533 28.6133 92.8933 29.5467 93.96 30.24ZM106.655 30.64C107.055 31.04 107.548 31.24 108.135 31.24C108.721 31.24 109.215 31.04 109.615 30.64C110.015 30.24 110.215 29.7467 110.215 29.16V9.64L119.775 28.8C120.175 29.6267 120.815 30.04 121.695 30.04C122.441 30.04 123.041 29.6933 123.495 29L133.175 9.28V29.16C133.175 29.7467 133.375 30.24 133.775 30.64C134.175 31.04 134.668 31.24 135.255 31.24C135.815 31.24 136.295 31.04 136.695 30.64C137.121 30.24 137.335 29.7467 137.335 29.16V2.08C137.335 1.46667 137.135 0.973334 136.735 0.6C136.335 0.200001 135.841 0 135.255 0C134.455 0 133.841 0.373334 133.415 1.12L121.855 24.92L109.975 1.12C109.548 0.373334 108.935 0 108.135 0C107.548 0 107.055 0.200001 106.655 0.6C106.255 0.973334 106.055 1.46667 106.055 2.08V29.16C106.055 29.7467 106.255 30.24 106.655 30.64ZM149.312 30C151.045 30.9333 153.018 31.4 155.232 31.4C156.458 31.4 157.738 31.1733 159.072 30.72C160.432 30.2667 161.565 29.68 162.472 28.96C162.925 28.6133 163.138 28.2 163.112 27.72C163.085 27.24 162.845 26.8 162.392 26.4C162.045 26.1067 161.632 25.9733 161.152 26C160.698 26 160.272 26.1467 159.872 26.44C159.338 26.84 158.632 27.2 157.752 27.52C156.898 27.8133 156.058 27.96 155.232 27.96C153.205 27.96 151.485 27.3867 150.072 26.24C148.685 25.0667 147.845 23.56 147.552 21.72H162.752C163.285 21.72 163.725 21.56 164.072 21.24C164.418 20.8933 164.592 20.4667 164.592 19.96C164.592 17.8533 164.192 16 163.392 14.4C162.618 12.7733 161.485 11.5067 159.992 10.6C158.498 9.66667 156.712 9.2 154.632 9.2C152.525 9.2 150.658 9.68 149.032 10.64C147.405 11.5733 146.125 12.88 145.192 14.56C144.285 16.2133 143.832 18.1333 143.832 20.32C143.832 22.48 144.312 24.4 145.272 26.08C146.258 27.7333 147.605 29.04 149.312 30ZM149.872 14.28C151.072 13.1867 152.658 12.64 154.632 12.64C156.445 12.64 157.885 13.2 158.952 14.32C160.018 15.4133 160.672 16.8133 160.912 18.52H147.592C147.912 16.7867 148.672 15.3733 149.872 14.28Z" fill="url(#paint0_linear)"/>
<defs>
<linearGradient id="paint0_linear" x1="-4.8439e-05" y1="2.97678" x2="36.2732" y2="87.9809" gradientUnits="userSpaceOnUse">
<stop stop-color="#D4FC79"/>
<stop offset="1" stop-color="#96E6A1"/>
</linearGradient>
</defs>
</svg>
